Coordinates
version=1
nRows=11
nColumns=36
inDegrees=yes

Units are S.I. units (second, meters, Newtons, ...)
If the header above contains a line with 'inDegrees', this indicates whether rotational values are in degrees (yes) or radians (no).

endheader
time	pelvis_tilt	pelvis_list	pelvis_rotation	pelvis_tx	pelvis_ty	pelvis_tz	hip_flexion_r	hip_adduction_r	hip_rotation_r	knee_angle_r	knee_angle_r_beta	ankle_angle_r	subtalar_angle_r	mtp_angle_r	hip_flexion_l	hip_adduction_l	hip_rotation_l	knee_angle_l	knee_angle_l_beta	ankle_angle_l	subtalar_angle_l	mtp_angle_l	lumbar_extension	lumbar_bending	lumbar_rotation	arm_flex_r	arm_add_r	arm_rot_r	elbow_flex_r	pro_sup_r	arm_flex_l	arm_add_l	arm_rot_l	elbow_flex_l	pro_sup_l
      0.00000000	     -5.65466516	     -0.58403365	     -0.35125657	     -0.16930616	      1.03468435	     -0.67577793	      7.95044790	     -7.35850158	    -10.85896457	      6.88312723	      0.12013323	      7.12299442	      8.50226523	     -4.40113316	     10.99200080	     -7.01481996	     -8.67831497	     13.07028819	      0.22811956	      7.63958433	      8.39035473	     -4.40113316	     -1.43845435	      1.81513019	     -1.27480837	     -3.19673162	    -11.46809500	     13.58624741	    112.97694338	    102.14426142	     -0.79774543	    -13.81661428	     23.05955847	    113.79526985	    101.21173106
      0.01000000	     -5.84460452	     -0.61736989	     -0.37028535	     -0.16974571	      1.03449954	     -0.67590235	      8.23313367	     -7.35524573	    -11.15564202	      6.95983809	      0.12147209	      7.21882362	      8.94167657	     -4.99306981	     11.29114380	     -7.09913720	     -8.93014185	     13.20184688	      0.23041570	      7.79855198	      8.76739707	     -4.99306981	     -1.32479411	      1.86685352	     -1.20148893	     -2.96656691	    -11.53839935	     13.68905835	    113.19793712	     99.35269985	     -0.39144396	    -13.82911657	     23.36702246	    113.93921596	     98.43137856
      0.02000000	     -6.04495611	     -0.61682036	     -0.43701145	     -0.17045958	      1.03430766	     -0.67596818	      8.58514114	     -7.37195195	    -11.18029097	      7.09066198	      0.12375540	      7.11439709	      8.82956317	     -5.13160056	     11.58565149	     -7.12190821	     -9.05472570	     13.27185841	      0.23163763	      7.61307128	      8.65370908	     -5.13160056	     -1.24878980	      1.88326592	     -1.13883869	     -2.59643272	    -11.65425117	     13.80422107	    113.21658495	     98.82673756	      0.04210472	    -13.86797917	     23.49696918	    113.88280979	     97.90648167
      0.03000000	     -6.35170702	     -0.63079440	     -0.47216286	     -0.17144217	      1.03389057	     -0.67600624	      9.10078319	     -7.38535532	    -11.23067908	      7.29602242	      0.12733961	      6.98862387	      8.65340151	     -5.27680752	     12.06254169	     -7.16849959	     -9.08648624	     13.41737000	      0.23417728	      7.48040212	      8.55347243	     -5.27680752	     -1.11047364	      1.88648240	     -1.09157852	     -2.21890274	    -11.77744121	     13.89307498	    113.35563381	     98.34404211	      0.52699944	    -13.90523911	     23.62735014	    113.88368300	     97.41594402
      0.04000000	     -6.49476620	     -0.60842441	     -0.45337991	     -0.17224460	      1.03372556	     -0.67624697	      9.42267417	     -7.47674514	    -11.51436076	      7.51966551	      0.13124292	      7.11305256	      8.88374199	     -5.58324475	     12.34319745	     -7.15715149	     -9.17271463	     13.55696590	      0.23661369	      7.54400853	      8.66210668	     -5.58324475	     -1.12136401	      1.89727430	     -1.07558128	     -1.80595209	    -11.83704997	     14.04783758	    113.66049437	     94.29259988	      1.08527579	    -13.92870263	     23.92067237	    114.08763897	     93.62111916
      0.05000000	     -6.83181374	     -0.63320413	     -0.43639368	     -0.17337690	      1.03320899	     -0.67638108	     10.02535740	     -7.51033615	    -11.60605898	      7.84819396	      0.13697683	      6.98520349	      8.72365659	     -5.66300585	     12.91520286	     -7.22230925	     -9.22986238	     13.77805061	      0.24047235	      7.40677144	      8.51437111	     -5.66300585	     -0.96645004	      1.94291109	     -1.10639729	     -1.36916835	    -11.85780170	     14.00475277	    113.72660737	     93.90641305	      1.60037927	    -13.94811151	     23.97436306	    114.08327747	     93.25044355
      0.06000000	     -6.89026932	     -0.55867033	     -0.31139444	     -0.17458626	      1.03298727	     -0.67669894	     10.36093885	     -7.74250423	    -12.24327507	      8.31973451	      0.14520676	      7.64093068	      9.78190236	     -5.74483961	     13.29451353	     -7.23837323	     -9.68462410	     14.20477170	      0.24792004	      7.72591194	      9.48679289	     -5.74483961	     -1.20325557	      1.85628380	     -0.96288310	     -1.01083099	    -11.86350882	     13.82463994	    113.85109911	     94.74293122	      2.56341478	    -14.02881740	     24.46336541	    113.74753745	     93.97546571
      0.07000000	     -7.29859169	     -0.55624670	     -0.30959737	     -0.17610645	      1.03216548	     -0.67685741	     11.16104194	     -7.83365312	    -12.30803856	      8.82849345	      0.15408628	      7.73820725	      9.78130396	     -6.05178224	     14.07423652	     -7.33305133	     -9.93963750	     14.66697062	      0.25598693	      7.83124142	      9.88081159	     -6.05178224	     -1.07156771	      1.84856523	     -0.86719121	     -0.54668494	    -11.93792496	     13.40437080	    113.39764451	    102.21272880	      3.26566991	    -14.00485238	     24.28956428	    112.93464055	    100.55480144
      0.08000000	     -7.65878133	     -0.55096688	     -0.33682286	     -0.17751606	      1.03137076	     -0.67694568	     11.91466961	     -7.91366548	    -12.26086868	      9.33680003	      0.16295790	      7.65751667	      9.46782978	     -6.12098348	     14.70515483	     -7.36559545	     -9.92245712	     14.95392560	      0.26099524	      7.71378907	      9.63004605	     -6.12098348	     -0.99669834	      1.84908964	     -0.88075022	      0.04629928	    -11.97768838	     13.49166949	    113.47973969	    101.70789087	      3.86526449	    -14.03555239	     24.37980391	    113.01358421	    100.04278735
      0.09000000	     -7.79177010	     -0.47911044	     -0.32903625	     -0.17907685	      1.03070855	     -0.67697901	     12.52655306	     -8.13582743	    -12.56623376	     10.08245586	      0.17597205	      8.24006383	     10.02103253	     -6.35048899	     15.19123098	     -7.41651067	    -10.29467973	     15.43617087	      0.26941201	      7.99510688	     10.24043060	     -6.35048899	     -1.21543884	      1.74889932	     -0.73324552	      0.61968857	    -12.05758122	     13.53437306	    113.76232572	     99.06719494	      4.78682820	    -14.09020597	     24.79819804	    113.21070020	     97.46712927
      0.10000000	     -7.88019828	     -0.50518697	     -0.24255892	     -0.18117127	      1.03003283	     -0.67697979	     13.07709946	     -8.21953603	    -12.65668835	     10.77079734	      0.18798588	      8.55831095	     10.03665331	     -6.42680044	     15.75406250	     -7.57307404	    -10.49584186	     16.05392913	      0.28019392	      8.29252163	     10.68381593	     -6.42680044	     -1.60860607	      1.74725172	     -0.69479272	      1.39697539	    -12.15715959	     13.48404629	    113.86728614	     99.37156428	      5.79688600	    -14.13531659	     25.03731772	    113.13731389	     97.70593214
